<svg xmlns:svg="http://www.w3.org/2000/svg" xmlns="http://www.w3.org/2000/svg" preserveAspectRatio="xMidYMid meet" viewBox="0 0 59 59" height="100%" width="100%">
  <defs>
    <filter id="filter4445" style="color-interpolation-filters:sRGB;">
      <feFlood result="flood" flood-color="rgb(213,213,213)" flood-opacity="0.627451" />
      <feComposite result="composite1" operator="in" in2="SourceGraphic" in="flood" />
      <feGaussianBlur result="blur" stdDeviation="0.6" in="composite1" />
      <feOffset result="offset" dy="0" dx="0" />
      <feComposite result="composite2" operator="over" in2="offset" in="SourceGraphic" />
    </filter>
  </defs>
  <path style="fill:#f2f2f2;stroke:#cccccc;stroke-opacity:1;stroke-width:0.25;stroke-miterlimit:4;stroke-dasharray:none;filter:url(#filter4445)" d="m 49.785293,32.025455 c 0.111869,-0.894881 0.195746,-1.789762 0.195746,-2.740572 0,-0.95081 -0.08391,-1.845691 -0.195746,-2.74057 l 5.900616,-4.614224 c 0.531334,-0.419474 0.67116,-1.174531 0.33558,-1.78976 L 50.428488,10.464438 C 50.092908,9.8492088 49.337853,9.62549 48.722624,9.8492088 L 41.75934,12.645709 C 40.30516,11.52711 38.739121,10.604263 37.033253,9.9051395 L 35.970584,2.4944145 C 35.886672,1.8232542 35.299423,1.3198859 34.6003,1.3198859 l -11.185997,0 c -0.699126,0 -1.28639,0.5033683 -1.370286,1.1745286 l -1.062672,7.410725 C 19.275481,10.604263 17.709442,11.555075 16.255261,12.645709 L 9.2919761,9.8492088 c -0.643195,-0.2516841 -1.3702841,0 -1.7058642,0.6152292 l -5.5929995,9.675891 c -0.3635454,0.615229 -0.1957554,1.370286 0.3355802,1.78976 l 5.9006142,4.614224 c -0.111869,0.894879 -0.1957554,1.817726 -0.1957554,2.74057 0,0.922847 0.083892,1.845691 0.1957554,2.740572 L 2.3286926,36.639679 C 1.797357,37.059156 1.6575323,37.81421 1.9931124,38.42944 l 5.5929995,9.675888 c 0.3355801,0.615231 1.0906345,0.838952 1.7058642,0.615231 l 6.9632849,-2.796502 c 1.454181,1.1186 3.02022,2.041446 4.726084,2.740572 l 1.062672,7.410725 c 0.08391,0.671158 0.67116,1.174528 1.370286,1.174528 l 11.185997,0 c 0.699123,0 1.286389,-0.50337 1.370284,-1.174528 l 1.062669,-7.410725 c 1.705868,-0.699126 3.271907,-1.649936 4.726087,-2.740572 l 6.963284,2.796502 c 0.643195,0.251684 1.370284,0 1.705864,-0.615231 l 5.593001,-9.675888 c 0.33558,-0.61523 0.195744,-1.370284 -0.33558,-1.789761 L 49.785293,32.025455 Z M 29.0073,39.072635 c -5.397244,0 -9.787747,-4.390504 -9.787747,-9.787752 0,-5.397244 4.390503,-9.787749 9.787747,-9.787749 5.397244,0 9.78775,4.390505 9.78775,9.787749 0,5.397248 -4.390506,9.787752 -9.78775,9.787752 z" />
  <path style="fill:none" d="m 3.742404,4.1303961 57.948527,0 0,57.9485299 -57.948527,0 z" />
  <g transform="matrix(2.4145219,0,0,2.4145219,3.742404,4.1303961)">
    <path d="m 10.461168,5.0884679 a 5.329684,5.329684 0 0 0 -5.3295309,5.3295301 5.329684,5.329684 0 0 0 5.3295309,5.32953 5.329684,5.329684 0 0 0 5.329529,-5.32953 5.329684,5.329684 0 0 0 -5.329529,-5.3295301 z m 0,1.2509467 a 4.0782389,4.0782389 0 0 1 4.078583,4.0785834 4.0782389,4.0782389 0 0 1 -4.078583,4.078584 4.0782389,4.0782389 0 0 1 -4.0785843,-4.078584 4.0782389,4.0782389 0 0 1 4.0785843,-4.0785834 z" style="fill:#cccccc;fill-opacity:1;stroke:none;stroke-width:0;stroke-linecap:round;stroke-linejoin:round;stroke-miterlimit:4;stroke-dasharray:none;stroke-opacity:1" />
    <path style="fill:#cccccc;fill-opacity:1;stroke:none;stroke-width:0;stroke-linecap:round;stroke-linejoin:round;stroke-miterlimit:4;stroke-dasharray:none;stroke-opacity:1" d="m 10.461168,5.0884679 a 5.329684,5.329684 0 0 0 -5.3295309,5.3295301 5.329684,5.329684 0 0 0 5.3295309,5.32953 5.329684,5.329684 0 0 0 5.329529,-5.32953 5.329684,5.329684 0 0 0 -5.329529,-5.3295301 z m 0,1.2509467 a 4.0782389,4.0782389 0 0 1 4.078583,4.0785834 4.0782389,4.0782389 0 0 1 -4.078583,4.078584 4.0782389,4.0782389 0 0 1 -4.0785843,-4.078584 4.0782389,4.0782389 0 0 1 4.0785843,-4.0785834 z"/>
  </g>
  <g style="fill:none;stroke:#b3b3b3;stroke-opacity:1;stroke-width:0.10354017;stroke-miterlimit:4;stroke-dasharray:none" transform="matrix(2.4145219,0,0,2.4145219,3.742404,4.1303961)">
    <path style="fill:none;fill-opacity:1;stroke:#b3b3b3;stroke-width:0.10354017;stroke-linecap:round;stroke-linejoin:round;stroke-miterlimit:4;stroke-dasharray:none;stroke-opacity:1" d="m 10.461168,5.0884679 a 5.329684,5.329684 0 0 0 -5.3295309,5.3295301 5.329684,5.329684 0 0 0 5.3295309,5.32953 5.329684,5.329684 0 0 0 5.329529,-5.32953 5.329684,5.329684 0 0 0 -5.329529,-5.3295301 z m 0,1.2509467 a 4.0782389,4.0782389 0 0 1 4.078583,4.0785834 4.0782389,4.0782389 0 0 1 -4.078583,4.078584 4.0782389,4.0782389 0 0 1 -4.0785843,-4.078584 4.0782389,4.0782389 0 0 1 4.0785843,-4.0785834 z"/>
    <path d="m 10.461168,5.0884679 a 5.329684,5.329684 0 0 0 -5.3295309,5.3295301 5.329684,5.329684 0 0 0 5.3295309,5.32953 5.329684,5.329684 0 0 0 5.329529,-5.32953 5.329684,5.329684 0 0 0 -5.329529,-5.3295301 z m 0,1.2509467 a 4.0782389,4.0782389 0 0 1 4.078583,4.0785834 4.0782389,4.0782389 0 0 1 -4.078583,4.078584 4.0782389,4.0782389 0 0 1 -4.0785843,-4.078584 4.0782389,4.0782389 0 0 1 4.0785843,-4.0785834 z" style="fill:none;fill-opacity:1;stroke:#b3b3b3;stroke-width:0.10354017;stroke-linecap:round;stroke-linejoin:round;stroke-miterlimit:4;stroke-dasharray:none;stroke-opacity:1" />
  </g>
</svg>