<svg xmlns:svg="http://www.w3.org/2000/svg" xmlns="http://www.w3.org/2000/svg" preserveAspectRatio="xMidYMid meet" viewBox="0 0 109.63702 116.04824" height="100%" width="100%"><defs> <filter style="color-interpolation-filters:sRGB" id="filter5709" x="-0.019931376" width="1.0398628" y="-0.018520399" height="1.0370408"> <feGaussianBlur stdDeviation="0.78615246"/> </filter> <filter style="color-interpolation-filters:sRGB" id="filter5753" x="-0.0074417712" width="1.0148835" y="-0.006973444" height="1.0139469"> <feGaussianBlur stdDeviation="0.29600821"/> </filter> <filter style="color-interpolation-filters:sRGB" id="filter4174" x="-0.16576994" width="1.3315399" y="-0.018751564" height="1.0375031"> <feGaussianBlur stdDeviation="0.74857928"/> </filter> <filter style="color-interpolation-filters:sRGB" id="filter4178" x="-0.024926926" width="1.0498539" y="-0.018545955" height="1.0370919"> <feGaussianBlur stdDeviation="0.74857928"/> </filter> <filter id="filter7065" style="color-interpolation-filters:sRGB;"> <feFlood result="flood" flood-color="rgb(213,213,213)" flood-opacity="0.627451"/> <feComposite result="composite1" operator="in" in2="SourceGraphic" in="flood"/> <feGaussianBlur result="blur" stdDeviation="0.6" in="composite1"/> <feOffset result="offset" dy="0" dx="0"/> <feComposite result="composite2" operator="over" in2="offset" in="SourceGraphic"/> </filter> </defs> <g style="fill:#000000" transform="matrix(-1.0892957,0,0,-1.0892957,542.79137,497.32744)"> <g style="fill:#000000" transform="matrix(-1,0,0,1,888.67251,-67.984465)"/> </g> <g transform="matrix(-1,0,0,-1,502.78949,461.31527)" style="fill:#ffffff;filter:url(#filter7065)"> <g transform="matrix(-1,0,0,1,888.67251,-67.984465)" style="fill:#ffffff"> <path transform="matrix(1.0869103,0,0,1.2651192,21.230914,-118.23027)" d="m 429.84459,465.96866 -34.86879,20.1315 -34.86878,20.1315 0,-40.263 0,-40.26301 34.86878,20.13151 z" style="fill:#ffffff;fill-opacity:1"/> <rect y="420.33813" x="392.96964" height="101.875" width="9.5964489" style="fill:#ffffff;fill-opacity:1"/> </g> </g></svg>